<svg width="130" height="93" viewBox="0 0 130 93" fill="none" xmlns="http://www.w3.org/2000/svg">
<path d="M17.0016 92.6906C16.9774 92.6701 16.4086 92.6065 15.7379 92.5496C13.4775 92.357 11.8219 91.9291 9.91827 91.0454C8.40472 90.3429 7.41335 89.6841 5.96746 88.4201C4.54023 87.1729 3.62247 86.0441 2.74882 84.4628C2.08876 83.268 1.84485 82.6679 1.47325 81.3244C0.975232 79.5245 0.961445 79.254 1.02932 72.717C1.10122 65.7889 1.17906 64.454 1.79797 59.5247C2.3891 54.8163 3.03898 51.0387 3.97265 46.8845C4.69294 43.68 4.77651 43.3244 5.1462 41.8926C5.32182 41.2126 5.51399 40.4293 5.57316 40.1523C5.86141 38.8007 7.28058 34.0707 7.89398 32.4165C9.12035 29.1095 10.7866 26.7013 13.23 24.7042C14.4581 23.7007 15.8015 22.9115 17.9332 21.942C20.1386 20.9389 20.7711 20.7357 23.1288 20.2721C23.7517 20.1495 58.2642 20.1535 58.2642 20.2761C58.2642 20.3365 61.2315 20.3677 66.9542 20.3677C72.633 20.3677 75.6667 20.336 75.7095 20.2761C75.7528 20.2156 80.9319 20.1849 90.9075 20.186C107.586 20.1874 106.218 20.1409 108.552 20.7865C109.745 21.1164 110.995 21.5852 112.615 22.3102C114.955 23.3574 117.271 25.1753 118.608 27.0131C119.775 28.6177 121.273 31.3049 121.823 32.7788C122.314 34.0964 123.459 37.9478 123.647 38.9157C123.686 39.1172 123.783 39.4882 123.862 39.7401C124.233 40.9191 124.56 42.1128 124.753 42.9917C124.869 43.5208 125.015 44.0978 125.078 44.2741C125.141 44.4503 125.26 44.9039 125.343 45.2816C125.517 46.0757 125.718 46.9105 126.014 48.0753C126.13 48.5287 126.253 49.085 126.288 49.3118C126.385 49.9429 126.579 50.8986 126.641 51.0521C126.672 51.1276 126.708 51.2514 126.722 51.3269C126.737 51.4024 126.874 52.0868 127.027 52.8474C127.18 53.6082 127.351 54.515 127.407 54.8625C127.463 55.2102 127.583 55.8862 127.673 56.3646C127.763 56.8431 127.858 57.3585 127.886 57.5096C127.929 57.7496 128.115 59.0834 128.73 63.5549C128.815 64.1686 128.906 65.9572 128.936 67.6043L128.991 70.5546L128.738 70.4549C128.331 70.2948 127.947 70.433 127.768 70.803C127.446 71.4676 127.291 75.4484 127.529 76.93C127.671 77.8152 127.497 78.9447 126.937 80.7796C126.74 81.422 126.607 82.0091 126.428 82.5333C126.62 82.5954 126.593 82.7564 126.313 83.2112C126.068 83.6099 125.695 84.4874 125.733 84.576C125.833 84.8098 123.645 87.3602 122.644 88.1757C120.957 89.55 118.656 90.8085 116.52 91.5255C115.093 92.0048 115.053 92.0245 115.061 92.2462C115.067 92.4125 114.973 92.432 113.895 92.4855C111.022 92.6285 109.062 92.4587 107.121 91.8985C105.828 91.5254 103.959 90.7021 103.056 90.1082C101.948 89.3793 99.4628 87.1319 98.7094 86.1775C97.5182 84.6687 96.9288 83.5551 96.3347 81.6908C95.7281 79.7874 95.6443 78.9099 95.6738 74.7753C95.7054 70.3729 95.589 69.0893 94.9982 67.3282C94.2892 65.2146 93.2444 63.9011 91.5111 62.9434C90.0739 62.1494 90.3428 62.18 84.8829 62.1879C60.0722 62.2242 48.915 62.2108 44.9776 62.1403C39.646 62.0447 39.9505 62.011 38.4518 62.8639C36.8414 63.7808 35.5015 65.2263 34.715 66.8957C34.0605 68.2847 34.0503 68.3737 33.9769 73.264C33.9396 75.7325 33.9012 77.7624 33.891 77.7751C33.8811 77.7877 33.8094 77.798 33.7319 77.798C33.5417 77.798 33.1695 78.1526 33.0331 78.464C32.9716 78.6036 32.8222 79.16 32.7009 79.7006C32.0655 82.5294 31.181 84.3446 29.4326 86.4079C29.1126 86.7857 28.797 87.1361 28.7312 87.1865C28.6659 87.2369 28.4347 87.4715 28.2175 87.7082C27.8629 88.0949 27.0098 88.7365 25.8874 89.4613C24.8177 90.1516 22.8543 91.0232 21.1359 91.5699C20.4007 91.8038 19.7596 91.9952 19.711 91.9952C19.6624 91.9952 19.4287 92.0753 19.1915 92.1729C18.9544 92.2708 18.474 92.3862 18.124 92.4298C17.7232 92.4794 17.4975 92.5492 17.5143 92.6183C17.5382 92.7181 17.1064 92.7791 17.0016 92.6906ZM51.7362 60.7625C52.546 60.5835 53.2052 60.3307 53.7571 59.9871C53.932 59.8782 54.2583 59.709 54.482 59.6112C54.7056 59.5131 55.315 59.0874 55.8361 58.6648C57.3505 57.4372 58.3185 56.1675 58.8475 54.7159C59.2959 53.4856 59.3739 52.9514 59.3693 51.1437C59.3654 49.5976 59.3398 49.369 59.0789 48.5332C58.3855 46.3122 56.7341 44.2162 54.8074 43.1112C54.2491 42.7911 54.2262 42.7864 54.0213 42.9467C53.9051 43.0375 53.8101 43.1709 53.8101 43.2431C53.8101 43.3152 53.4881 43.1192 53.0942 42.8074C51.9924 41.9351 50.195 41.1225 48.6136 40.7817C47.8606 40.6194 45.507 40.6214 44.5307 40.785C42.7753 41.0792 41.1935 41.8614 39.5601 43.2427C38.1956 44.3968 37.3697 45.4861 36.7996 46.8845C36.151 48.4746 36.057 49.6372 36.4135 51.6596C36.604 52.74 36.6698 52.9201 37.2036 53.8205C37.8476 54.9065 38.0726 55.2072 38.697 55.8151C39.4691 56.5667 41.1795 57.7637 41.9324 58.0793C42.76 58.4261 43.5238 58.6707 43.9296 58.7186C44.3457 58.7679 44.3856 58.7945 44.3419 58.992C44.3033 59.1665 44.403 59.2906 44.8363 59.6082C46.5511 60.8642 49.2397 61.3139 51.7362 60.7625ZM88.2168 60.6231C89.4138 60.3234 90.1918 59.9772 91.1526 59.3166C93.4773 57.7184 95.1102 55.4249 95.4753 53.2458C95.9962 50.1351 94.9932 47.2762 92.6407 45.1671C92.1474 44.7251 91.9395 44.6408 91.85 44.8465C91.8195 44.9171 91.7652 44.8845 91.7088 44.7615C91.6583 44.6518 91.2171 44.1854 90.728 43.7249C88.3631 41.4984 85.4624 40.4567 82.335 40.7108C78.5572 41.0179 75.0338 43.3149 73.6032 46.4035C73.1594 47.3612 73.0161 47.9738 72.9471 49.2054C72.8288 51.3188 73.3357 53.1608 74.4437 54.6456C74.7169 55.0118 75.1284 55.4967 75.3583 55.7235C75.5878 55.9503 75.8143 56.1769 75.8616 56.2273C76.0188 56.3951 77.2486 57.3196 77.4335 57.4092C77.5338 57.4576 77.7107 57.5737 77.8268 57.6668C77.9426 57.7602 78.301 57.9397 78.6234 58.0658C79.4625 58.3944 79.5291 58.4342 79.5125 58.5992C79.4945 58.7795 80.8852 59.7634 81.6 60.0763C82.6998 60.5575 84.2731 60.8242 86.1171 60.8417C87.0896 60.8508 87.4606 60.8121 88.2168 60.6231ZM107.241 51.6449C108.083 51.4797 108.379 51.3243 109.201 50.6191C109.994 49.9387 110.865 48.4083 110.865 47.6961C110.865 47.0042 110.074 45.2747 109.392 44.4781C109.117 44.1557 109.024 44.1024 108.865 44.1757C108.708 44.2484 108.577 44.1799 108.152 43.8031C107.865 43.5494 107.535 43.3043 107.419 43.2585C107.302 43.2127 107.135 43.1375 107.048 43.0912C106.392 42.7444 106.013 42.673 104.819 42.6721C103.641 42.6711 103.571 42.6825 102.857 42.9853C100.95 43.7945 99.8178 45.581 100.125 47.2971C100.375 48.6899 101.535 50.0404 102.989 50.6321C103.35 50.7788 103.626 50.925 103.603 50.9569C103.495 51.1082 104.163 51.5398 104.718 51.6774C105.278 51.816 106.446 51.801 107.241 51.6449ZM27.5626 45.7916C28.6239 45.3664 29.4382 44.5434 29.5856 43.7474C29.645 43.4259 29.628 43.3581 29.4884 43.3581C29.3832 43.3581 29.3417 43.3072 29.3786 43.2242C29.4112 43.1506 29.387 42.6662 29.3249 42.148C29.2057 41.1558 29.3012 40.0339 29.5209 39.8438C29.5968 39.7782 30.3296 39.7232 31.518 39.6943C33.3243 39.6503 33.414 39.639 33.8868 39.399C35.7026 38.477 36.4318 36.2269 35.4086 34.7024C35.0743 34.2046 34.3511 33.6115 34.1564 33.6759C34.0681 33.7052 33.8934 33.6261 33.7512 33.4926C33.6138 33.3634 33.2532 33.119 32.9497 32.9496L32.398 32.6415H30.9197C29.6136 32.6415 29.4316 32.6228 29.3591 32.4812C29.3141 32.393 29.256 31.5377 29.2301 30.5806C29.1889 29.0608 29.1556 28.7937 28.9671 28.4739C28.6905 28.0049 27.5271 27.0289 27.3246 27.0959C27.2419 27.1234 26.975 27.0058 26.732 26.8349C26.4889 26.6639 26.06 26.4313 25.7788 26.3181C25.3279 26.1364 25.1599 26.1184 24.3583 26.1673C23.3496 26.2287 22.9892 26.3785 22.1917 27.0673C21.3734 27.7741 21.3102 28.0042 21.2721 30.4091L21.2385 32.5277L19.0908 32.5158L16.9426 32.5041L16.3169 32.7803C15.5678 33.1113 14.7703 33.9102 14.5077 34.5926C14.2528 35.2552 14.4152 36.1737 14.9154 36.9006C15.0195 37.0518 15.1315 37.2373 15.1644 37.3128C15.1973 37.3883 15.4596 37.612 15.7475 37.8096C16.09 38.0448 16.2525 38.2189 16.2177 38.3138C16.1256 38.564 16.5337 38.9952 17.1768 39.3279L17.797 39.6485L19.3237 39.6802C20.3363 39.7013 20.8894 39.6782 20.9666 39.6115C21.0307 39.5562 21.1448 39.5111 21.2207 39.5111C21.3281 39.5111 21.3588 39.8313 21.3592 40.9537C21.3599 42.4865 21.4411 42.9097 21.8396 43.4552C22.0982 43.8088 22.9462 44.3657 23.2259 44.3657C23.3142 44.3657 23.354 44.4104 23.315 44.4651C23.2323 44.5807 24.2661 45.4373 24.588 45.5201C24.7075 45.5509 24.8818 45.6594 24.9753 45.7616C25.3317 46.1499 26.6306 46.1651 27.5626 45.7916ZM116.433 42.6085C117.5 42.4374 118.662 41.5995 119.274 40.5604C119.842 39.5967 119.844 38.1995 119.279 36.9919C118.903 36.1902 118.508 35.6887 118.386 35.8592C118.321 35.9506 118.283 35.9361 118.226 35.7989C117.718 34.565 116.613 33.5525 115.178 33.0056C114.597 32.784 113.111 32.6854 112.297 32.8144C111.947 32.8697 111.303 33.0668 110.865 33.2522C107.659 34.6119 107.06 38.1921 109.671 40.3926C110.323 40.9415 111.442 41.5093 112.194 41.6724C112.388 41.7145 112.446 41.775 112.404 41.8895C112.36 42.0109 112.495 42.117 112.978 42.3396C113.954 42.7888 114.866 42.8598 116.433 42.6085ZM98.2686 42.4958C99.0314 42.2634 99.8658 41.7856 100.316 41.3238C100.774 40.8539 101.388 39.6895 101.532 39.02C101.616 38.6283 101.642 38.124 101.599 37.6818C101.46 36.2393 100.445 34.3882 99.9409 34.6573C99.8304 34.7163 99.7531 34.6877 99.673 34.5584C99.4481 34.1956 98.0095 33.1965 97.4529 33.0166C95.4536 32.3707 93.7749 32.629 92.0823 33.8436C90.3645 35.0764 89.8075 37.3286 90.794 39.0531C91.1734 39.7166 92.5006 40.8682 93.2552 41.1891C93.5729 41.3241 93.7757 41.4346 93.7059 41.4346C93.6361 41.4346 93.5791 41.5337 93.5791 41.6548C93.5791 41.8208 93.7034 41.938 94.0818 42.1296C95.317 42.7549 96.9502 42.8978 98.2686 42.4958ZM61.9336 38.3658C62.298 38.237 62.6662 37.8448 62.7752 37.4693C62.8946 37.0589 62.4592 35.992 62.063 35.7242C61.8786 35.5996 61.6763 35.3607 61.6133 35.1937C61.4752 34.8269 60.9751 34.6177 60.7725 34.8419C60.672 34.9531 60.2291 34.9799 58.2746 34.9925C56.1265 35.0065 55.8726 35.0246 55.6233 35.1816C54.9614 35.5989 54.713 36.7768 55.1735 37.3147C55.2986 37.4608 55.4009 37.6231 55.4009 37.6755C55.4009 37.7382 56.1093 37.7708 57.4761 37.7708C59.5194 37.7708 59.55 37.7737 59.4821 37.9584C59.441 38.0701 59.4846 38.2401 59.5894 38.3783C59.7625 38.6065 59.7812 38.6093 60.6851 38.5462C61.191 38.5109 61.7529 38.4297 61.9336 38.3658ZM74.7315 37.5872C75.3564 37.1628 75.612 36.2258 75.2718 35.6068C74.9104 34.9487 74.8338 34.9313 72.2981 34.9313C69.758 34.9313 69.4704 34.9819 69.1064 35.4934C68.6317 36.1602 68.706 36.8585 69.3155 37.4581L69.6337 37.7708H72.0474C74.3025 37.7708 74.4791 37.7587 74.7315 37.5872ZM105.955 32.7343C107.444 32.2824 108.645 31.1741 109.124 29.8112C109.415 28.9828 109.276 27.5015 108.831 26.6911C108.46 26.0147 108.243 25.8002 107.486 25.3615C106.397 24.7304 105.707 24.5402 104.497 24.5375C103.535 24.5355 103.443 24.5529 102.668 24.8837C101.322 25.4582 100.524 26.2884 100.096 27.5597C99.8062 28.4207 99.9317 29.691 100.386 30.4959C100.577 30.8346 100.942 31.3119 101.197 31.5566C101.65 31.9919 102.671 32.5557 103.431 32.7902C104.023 32.973 105.26 32.9456 105.955 32.7343ZM79.7463 32.3438C80.5624 31.5075 80.4969 30.4038 79.587 29.6646L79.2487 29.3898L76.8929 29.3622L74.5368 29.3345L74.08 29.6205C73.4473 30.0163 73.1743 30.5674 73.2432 31.3087C73.2884 31.7946 73.3442 31.9114 73.6689 32.2003C73.8745 32.3832 74.1313 32.5524 74.2397 32.5764C74.3483 32.6004 75.5662 32.625 76.9461 32.6308L79.4555 32.6415L79.7463 32.3438ZM56.4096 32.2619C56.6185 32.1036 56.8796 31.8127 56.9897 31.6156C57.1611 31.3093 57.1755 31.1754 57.0896 30.6901C56.9997 30.1812 56.9388 30.0823 56.5029 29.7333L56.0168 29.344L53.6141 29.3444C50.8299 29.3448 50.7575 29.3627 50.2099 30.1874C49.7704 30.8497 49.7744 31.3084 50.2247 31.8603C50.411 32.0884 50.6199 32.2751 50.689 32.2751C50.7582 32.2751 50.8742 32.337 50.9467 32.4125C51.0572 32.5275 51.4833 32.5499 53.5543 32.5499H56.0297L56.4096 32.2619Z" fill="#E6EDF1" stroke="#E6EDF1" stroke-width="0.276677" stroke-linecap="round" stroke-linejoin="round"/>
<path d="M44.7428 58.9546C44.6262 58.9299 44.483 58.8784 44.4247 58.8403C44.3663 58.8022 44.1231 58.7454 43.8842 58.7139C43.4995 58.6633 42.7259 58.4118 41.9325 58.0793C41.1795 57.7637 39.4691 56.5667 38.6971 55.8151C38.0727 55.2073 37.8476 54.9065 37.2037 53.8205C36.6698 52.9201 36.6041 52.74 36.4136 51.6596C36.183 50.3516 36.1517 49.2946 36.3167 48.3959C36.4486 47.6778 37.0679 46.1252 37.4495 45.5564C38.6432 43.7776 41.0098 41.8739 42.8135 41.2419C44.8646 40.5232 47.4416 40.423 49.394 40.986C51.5483 41.6072 53.3652 42.7551 54.4464 44.1788C54.5338 44.2939 54.6651 44.4419 54.7381 44.5078C54.8664 44.8231 55.0395 44.9953 55.2168 45.1671C55.2989 45.3058 55.4603 45.5634 55.5748 45.7396C56.0175 46.4202 56.5342 47.9524 56.6262 48.8575C56.6593 49.1829 56.7015 49.58 56.7202 49.7401C56.7724 50.1888 56.5791 51.6764 56.3889 52.2887C55.3523 55.6257 51.6573 58.4569 47.7311 58.9226C46.9024 59.0209 45.1437 59.0396 44.7428 58.9546ZM47.8204 55.1659C48.8152 55.007 49.6258 54.5961 50.5849 53.7648C51.9606 52.5726 52.5375 51.4713 52.5375 50.0378C52.5375 49.0185 52.3848 48.447 51.88 47.5785C51.116 46.2639 49.7198 45.1845 48.1895 44.7255C47.2774 44.4518 45.752 44.4289 44.9019 44.6764C43.8832 44.9728 43.0831 45.3976 42.2977 46.0589C41.0461 47.1128 40.5148 48.2409 40.5072 49.8614C40.5033 50.6341 40.5504 50.9435 40.7468 51.4359C41.462 53.2299 43.2204 54.6504 45.2731 55.0922C46.1469 55.2804 46.9567 55.3036 47.8204 55.1659Z" fill="#00D1C9" stroke="#00D1C9" stroke-width="0.276677" stroke-linecap="round" stroke-linejoin="round"/>
<path d="M81.7544 55.0926C80.1212 54.6826 78.5763 53.6161 77.8055 52.3663C76.5698 50.3626 76.9834 47.7063 78.7668 46.1923C80.0305 45.1197 81.208 44.6423 82.7644 44.5719C83.588 44.5349 83.9306 44.5631 84.6203 44.7255C87.3263 45.3626 89.1075 47.433 89.1211 49.9567C89.1338 52.2791 87.2512 54.4666 84.678 55.1193C83.928 55.3097 82.5693 55.2972 81.7544 55.0926ZM84.4757 52.6389C85.3109 52.2993 85.891 51.8131 86.3063 51.1042C87.1363 49.6874 86.4936 47.773 85.0021 47.2187C84.0754 46.8743 83.5433 46.8179 82.638 46.9673C81.2133 47.2029 80.5079 47.6268 79.9834 48.5633C79.6864 49.0935 79.6406 49.2717 79.6381 49.9072C79.6355 50.5648 79.6754 50.7125 80.0258 51.3478C80.4445 52.1069 80.9124 52.4862 81.8354 52.8152C82.5407 53.0661 83.5978 52.9958 84.4757 52.6389Z" fill="#36496A" stroke="#36496A" stroke-width="0.276677" stroke-linecap="round" stroke-linejoin="round"/>
<path d="M80.993 58.7038C80.5743 58.6516 80.1964 58.5778 80.1535 58.54C80.1105 58.5023 79.9635 58.4713 79.8265 58.4713C79.6894 58.4713 79.4947 58.4318 79.3934 58.3834C79.292 58.3349 78.9456 58.1922 78.6234 58.0658C78.301 57.9397 77.9426 57.7602 77.8268 57.6668C77.7108 57.5737 77.5339 57.4576 77.4335 57.4092C77.2486 57.3196 76.0188 56.3951 75.8617 56.2272C75.8144 56.1769 75.5878 55.9503 75.3583 55.7235C73.6172 54.005 72.8021 51.801 72.9472 49.2054C72.9828 48.5673 73.0833 47.8095 73.1703 47.5211C74.5689 42.8833 80.1003 39.8553 85.3089 40.8762C88.1056 41.4243 90.849 43.2643 92.0976 45.4289C92.385 45.9272 92.6213 46.3989 92.6225 46.4769C92.6238 46.5551 92.666 46.6581 92.7167 46.7059C92.7672 46.7537 92.9208 47.1432 93.0582 47.5715C93.2733 48.2431 93.3064 48.545 93.2983 49.7698C93.2902 50.9878 93.2499 51.317 93.0149 52.0864C92.3502 54.2601 90.0811 56.784 87.7463 57.9461C86.3134 58.6593 83.3232 58.9949 80.993 58.7038ZM84.6781 55.1193C85.6232 54.8797 86.4466 54.4457 87.2602 53.7586C88.4705 52.7371 89.129 51.3914 89.1212 49.9566C89.1076 47.433 87.3264 45.3626 84.6204 44.7254C83.9306 44.5631 83.5881 44.5349 82.7645 44.5719C81.5996 44.6247 80.8573 44.8341 79.9266 45.3728C78.0622 46.452 77.109 47.9388 77.108 49.7698C77.1065 51.9908 78.3309 53.6668 80.762 54.7712C81.8007 55.243 83.5705 55.4003 84.6781 55.1193Z" fill="#00D1C9" stroke="#00D1C9" stroke-width="0.276677" stroke-linecap="round" stroke-linejoin="round"/>
<path d="M45.273 55.0923C43.6912 54.7517 42.3643 53.9028 41.4191 52.6267C40.7347 51.7027 40.5016 50.9961 40.5071 49.8614C40.5147 48.2409 41.0461 47.1128 42.2977 46.0589C43.0831 45.3976 43.8831 44.9728 44.9019 44.6764C45.752 44.4289 47.2774 44.4518 48.1894 44.7255C49.7197 45.1846 51.116 46.2639 51.88 47.5785C52.3848 48.447 52.5375 49.0186 52.5375 50.0378C52.5375 51.4713 51.9606 52.5726 50.5849 53.7649C50.0328 54.2433 49.4985 54.6079 49.0858 54.7874C47.9582 55.2776 46.6288 55.3841 45.273 55.0923ZM47.828 52.8731C48.8609 52.5393 49.5681 51.8545 49.7861 50.9767C49.851 50.7158 49.9477 50.5026 49.9957 50.2278C49.9342 50.2278 49.9151 49.9882 49.9477 49.6324C49.9787 49.2992 49.9603 49.0371 49.906 49.0371C49.8527 49.0371 49.7263 48.8504 49.6256 48.6221C49.2045 47.6701 48.1763 46.9311 47.0759 46.7901C46.5265 46.7195 45.22 46.9597 44.4936 47.2643C43.5255 47.6705 43.0553 48.5131 43.0778 49.8019C43.1079 51.5532 43.9126 52.4862 45.7503 52.9011C46.675 53.1098 47.1136 53.1039 47.828 52.8731Z" fill="#36496A" stroke="#36496A" stroke-width="0.276677" stroke-linecap="round" stroke-linejoin="round"/>
<path d="M94.0669 41.4777C93.0914 41.178 92.4422 40.805 91.7011 40.1189C90.6393 39.1358 90.2081 38.0969 90.3271 36.8091C90.5668 34.2101 93.5273 32.2436 96.4127 32.7664C97.5025 32.9639 97.9827 33.1738 98.8447 33.8295C99.6761 34.4616 100.036 34.979 100.328 35.958C100.645 37.0243 100.351 38.6254 99.6638 39.5727C99.2445 40.1508 98.3429 40.9515 97.8508 41.1829C96.6569 41.744 95.2822 41.8512 94.0669 41.4777Z" fill="#F2B017" stroke="#F2B017" stroke-width="0.276677" stroke-linecap="round" stroke-linejoin="round"/>
<path d="M115.039 92.3147C114.971 92.1616 115.171 91.904 115.359 91.9029C115.628 91.9009 117.867 91.05 118.832 90.5828C120.096 89.9702 121.629 89.0023 122.644 88.1757C123.645 87.3601 125.833 84.8098 125.733 84.576C125.695 84.4873 126.068 83.6099 126.313 83.2112C126.593 82.7564 126.62 82.5953 126.641 82.0842C126.607 82.0091 126.74 81.422 126.937 80.7796C127.497 78.9447 127.671 77.8152 127.529 76.93C127.291 75.4483 127.446 71.4676 127.768 70.803C127.948 70.4315 128.332 70.295 128.743 70.4568L129 70.5579L128.996 74.5214C128.992 79.7269 128.896 80.5905 128.077 82.7899C127.38 84.6621 126.475 86.0866 124.928 87.7467C124.05 88.6897 123.304 89.2767 121.902 90.1303C120.208 91.1617 118.399 91.8849 116.539 92.2744C115.514 92.4889 115.121 92.4994 115.039 92.3147Z" fill="#CEDAE6" stroke="#CEDAE6" stroke-width="0.276677" stroke-linecap="round" stroke-linejoin="round"/>
<path d="M102.862 50.583C100.965 49.7235 99.7722 47.7631 100.131 46.0954C100.421 44.7493 101.44 43.586 102.857 42.9854C103.571 42.6825 103.641 42.6712 104.819 42.6721C106.013 42.673 106.392 42.7445 107.048 43.0912C107.135 43.1376 107.302 43.2127 107.419 43.2585C107.67 43.357 108.64 44.2221 108.865 44.5489C109.132 44.9343 109.468 45.7629 109.535 46.2C109.788 47.8478 108.58 49.7253 106.762 50.5084C106.078 50.8034 105.974 50.8208 104.767 50.8448C103.521 50.8693 103.482 50.864 102.862 50.583Z" fill="#E2474F" stroke="#E2474F" stroke-width="0.276677" stroke-linecap="round" stroke-linejoin="round"/>
<path d="M48.1364 60.9034C46.8591 60.6894 45.6798 60.2259 44.8322 59.6051C44.435 59.3142 44.2999 59.1566 44.338 59.0299C44.3832 58.8809 44.4401 58.8674 44.7253 58.9381C45.179 59.0506 46.7193 59.0425 47.731 58.9225C51.6572 58.4569 55.3522 55.6256 56.3888 52.2886C56.579 51.6764 56.7723 50.1887 56.7201 49.7401C56.7014 49.58 56.6592 49.1828 56.6261 48.8575C56.5341 47.9523 56.0174 46.4201 55.5747 45.7396C55.4602 45.5633 55.2988 45.3058 55.2167 45.1671C54.8771 44.8733 54.8385 44.6873 54.738 44.5078C54.665 44.4418 54.5337 44.2968 54.4464 44.185C54.359 44.0735 54.18 43.8544 54.0487 43.6981C53.7545 43.348 53.7477 43.1604 54.0213 42.9466C54.2262 42.7864 54.2491 42.7911 54.8074 43.1112C56.7341 44.2162 58.3855 46.3122 59.0789 48.5332C59.3398 49.3689 59.3654 49.5976 59.3692 51.1437C59.3739 52.9514 59.2958 53.4856 58.8475 54.7159C58.3185 56.1675 57.3505 57.4372 55.8361 58.6648C55.3149 59.0874 54.7056 59.5131 54.482 59.6111C54.2582 59.709 53.932 59.8782 53.757 59.987C52.4488 60.8015 49.9549 61.2082 48.1364 60.9034Z" fill="#CEDAE6" stroke="#CEDAE6" stroke-width="0.276677" stroke-linecap="round" stroke-linejoin="round"/>
<path d="M50.9468 32.4125C50.8742 32.337 50.7582 32.2751 50.6891 32.2751C50.6199 32.2751 50.411 32.0884 50.2248 31.8604C49.7745 31.3084 49.7705 30.8497 50.2099 30.1875C50.7576 29.3627 50.8299 29.3448 53.6142 29.3444L56.0168 29.3441L56.503 29.7333C56.9389 30.0823 56.9997 30.1812 57.0897 30.6901C57.1756 31.1754 57.1611 31.3093 56.9898 31.6156C56.8797 31.8127 56.6186 32.1036 56.4097 32.2619L56.0298 32.5499H53.5544C51.4834 32.5499 51.0573 32.5275 50.9468 32.4125Z" fill="#00D1C9" stroke="#00D1C9" stroke-width="0.276677" stroke-linecap="round" stroke-linejoin="round"/>
<path d="M18.9648 21.0532C18.7417 20.5921 18.7737 19.8793 19.0374 19.4252C19.4889 18.6483 19.9838 18.3526 20.8335 18.3526C21.1334 18.3526 22.2214 18.2698 23.2512 18.1687C24.2809 18.0676 25.5769 17.9439 26.1309 17.8939C26.6849 17.8439 28.1883 17.6975 29.4715 17.5685C30.7547 17.4396 32.1626 17.2987 32.6 17.2553C33.0373 17.2121 33.9443 17.1483 34.6149 17.1139L35.8345 17.051L36.3406 17.3868C36.6189 17.5715 36.8221 17.7567 36.7924 17.7983C36.7627 17.8398 36.8127 17.9272 36.9039 17.9926C37.1593 18.1756 37.4783 18.7734 37.4783 19.0689C37.4783 19.2151 37.448 19.5257 37.4109 19.7595L37.3434 20.1845H30.4911C23.3333 20.1847 23.3456 20.1841 21.5493 20.5921C21.2167 20.6678 20.5331 20.8726 20.0304 21.0477L19.1163 21.3661L18.9648 21.0532Z" fill="#00D1C9" stroke="#00D1C9" stroke-width="0.276677" stroke-linecap="round" stroke-linejoin="round"/>
<path d="M17.5605 92.7027C17.3843 92.5191 17.4602 92.4872 18.2568 92.4088C18.6217 92.3729 18.9443 92.3096 18.9742 92.2678C19.0041 92.226 19.2066 92.1434 19.4247 92.0842C21.909 91.4108 24.4901 90.3633 25.8874 89.4613C27.0098 88.7364 27.8629 88.0949 28.2176 87.7082C28.4347 87.4715 28.6659 87.2368 28.7313 87.1864C28.797 87.1361 29.1126 86.7856 29.4327 86.4079C31.181 84.3446 32.0655 82.5294 32.7009 79.7005C32.9589 78.5525 33.0645 78.2837 33.3678 78.004C33.7924 77.6125 33.8726 77.7217 33.8726 78.6912C33.8726 79.8841 33.5697 81.1963 32.906 82.8769C32.2602 84.5128 31.7096 85.4919 30.708 86.7853C29.4125 88.4589 26.9555 90.3131 24.8053 91.2397C22.6927 92.1504 20.629 92.6734 18.7057 92.7855C17.867 92.8344 17.6736 92.8203 17.5605 92.7027Z" fill="#CEDAE6" stroke="#CEDAE6" stroke-width="0.276677" stroke-linecap="round" stroke-linejoin="round"/>
<path d="M45.7502 52.9011C43.9126 52.4862 43.1079 51.5532 43.0777 49.8019C43.0553 48.5131 43.5255 47.6705 44.4935 47.2643C45.22 46.9597 46.5265 46.7195 47.0758 46.79C48.1762 46.9311 49.2045 47.6701 49.6255 48.6221C49.7263 48.8504 49.8527 49.0371 49.9059 49.0371C49.9602 49.0371 49.9787 49.2992 49.9477 49.6324C49.915 49.9882 49.9341 50.2278 50.0011 50.5026C49.9477 50.5026 49.851 50.7158 49.7861 50.9767C49.568 51.8545 48.8609 52.5393 47.828 52.8731C47.1136 53.1039 46.675 53.1098 45.7502 52.9011Z" fill="#405475" stroke="#405475" stroke-width="0.276677" stroke-linecap="round" stroke-linejoin="round"/>
<path d="M104.718 51.6773C104.127 51.5308 103.462 51.084 103.632 50.9471C103.673 50.9138 104.232 50.8707 104.873 50.8517C105.945 50.8198 106.099 50.7916 106.762 50.5073C108.598 49.7192 109.757 47.9113 109.524 46.1975C109.458 45.7088 109.251 45.1889 108.874 44.5682C108.714 44.3032 108.711 44.2565 108.851 44.1784C109.316 43.9183 110.865 46.6225 110.865 47.696C110.865 48.0137 110.605 48.6743 110.174 49.4492C109.819 50.0872 108.956 50.9382 108.269 51.3263C107.589 51.7109 105.633 51.9041 104.718 51.6773Z" fill="#CEDAE6" stroke="#CEDAE6" stroke-width="0.276677" stroke-linecap="round" stroke-linejoin="round"/>
<path d="M37.4335 19.5155C37.4933 18.9452 37.4717 18.7923 37.2865 18.479C37.1673 18.2768 36.9938 18.0571 36.9014 17.9908C36.7732 17.899 36.7618 17.8406 36.8536 17.7452C37.0405 17.5506 37.1366 17.5913 37.4274 17.9892L37.6974 18.3585L38.6342 18.3407C39.4542 18.3251 39.6129 18.3484 39.9049 18.5281C40.4125 18.8403 40.9686 19.8812 40.7357 20.0823C40.6589 20.1486 40.0455 20.1845 38.9903 20.1845H37.3633L37.4335 19.5155Z" fill="#58C2DA" stroke="#58C2DA" stroke-width="0.276677" stroke-linecap="round" stroke-linejoin="round"/>
<path d="M108.956 20.9065C108.461 20.757 107.608 20.5335 107.062 20.4097L106.07 20.1845H99.0395H92.0091L91.8927 19.8962C91.7262 19.4836 91.7474 19.1949 91.9894 18.5758C92.1576 18.146 92.315 17.947 92.7345 17.6349C93.2317 17.2652 93.3174 17.2357 94.0328 17.1901C94.454 17.1634 95.2997 17.1864 95.9122 17.2414C99.9481 17.6043 102.372 17.836 104.131 18.0273C105.239 18.1478 106.623 18.2753 107.207 18.3105C107.79 18.3458 108.363 18.4171 108.479 18.469C108.917 18.6633 110.085 19.3475 110.221 19.4888C110.371 19.6452 110.416 20.6445 110.288 20.9922C110.195 21.2467 110.055 21.2379 108.956 20.9065Z" fill="#00D1C9" stroke="#00D1C9" stroke-width="0.276677" stroke-linecap="round" stroke-linejoin="round"/>
<path d="M69.3155 37.4581C68.706 36.8585 68.6317 36.1602 69.1064 35.4934C69.4704 34.9819 69.758 34.9313 72.2981 34.9313C74.3964 34.9313 74.5875 34.9449 74.8333 35.112C75.4427 35.526 75.6069 36.3241 75.223 37.0087C74.7975 37.7682 74.7867 37.7708 72.0474 37.7708H69.6337L69.3155 37.4581Z" fill="#00D1C9" stroke="#00D1C9" stroke-width="0.276677" stroke-linecap="round" stroke-linejoin="round"/>
<path d="M74.2396 32.5764C74.1313 32.5524 73.8744 32.3831 73.6689 32.2003C73.3442 31.9114 73.2884 31.7945 73.2432 31.3087C73.1743 30.5673 73.4472 30.0163 74.0799 29.6204L74.5368 29.3345L76.8928 29.3621L79.2486 29.3898L79.5869 29.6646C80.4968 30.4038 80.5624 31.5075 79.7462 32.3437L79.4554 32.6414L76.9461 32.6308C75.5661 32.6249 74.3482 32.6004 74.2396 32.5764Z" fill="#00D1C9" stroke="#00D1C9" stroke-width="0.276677" stroke-linecap="round" stroke-linejoin="round"/>
<path d="M23.2145 44.3741C22.7864 44.2646 22.0958 43.8053 21.8464 43.4644C21.4171 42.8767 21.3599 42.5067 21.3592 40.3126L21.3586 38.2288L19.158 38.2235C17.9478 38.2206 16.7783 38.1896 16.5594 38.1548C16.1511 38.0898 15.2706 37.5585 15.1642 37.3128C15.1313 37.2374 15.0195 37.0518 14.9154 36.9007C14.4152 36.1738 14.2528 35.2552 14.5077 34.5926C14.7703 33.9103 15.5678 33.1114 16.3169 32.7803L16.9426 32.5041L19.0908 32.5158L21.2385 32.5277L21.272 30.4091C21.3102 28.0042 21.3734 27.7741 22.1917 27.0674C22.9896 26.3782 23.3496 26.2287 24.3598 26.1672C25.19 26.1166 25.3198 26.1324 25.8331 26.3447C26.5691 26.6493 27.2295 27.1503 27.585 27.6744C27.8701 28.0943 27.8714 28.1042 27.9157 30.2838L27.9604 32.4715L28.2192 32.5565C28.3613 32.6034 29.3599 32.6415 30.4378 32.6415H32.398L32.9497 32.9503C33.7309 33.3874 34.0244 33.7014 34.2828 34.3767C34.6113 35.2345 34.5916 36.1155 34.2306 36.7321C33.8043 37.4594 33.3631 37.8646 32.7363 38.1039C32.211 38.3046 32.0343 38.3204 30.3116 38.3204C28.0186 38.3204 27.8298 38.3744 27.8232 39.0326C27.7865 42.6204 27.7925 42.5503 27.4866 43.0511C27.1721 43.5662 26.6403 43.9933 25.9557 44.2803C25.593 44.4324 25.3308 44.4617 24.471 44.4467C23.8966 44.4366 23.3311 44.404 23.2145 44.3741Z" fill="#00D1C9" stroke="#00D1C9" stroke-width="0.276677" stroke-linecap="round" stroke-linejoin="round"/>
<path d="M55.4009 37.6756C55.4009 37.6232 55.2986 37.4609 55.1735 37.3147C54.712 36.7754 54.9614 35.5989 55.6265 35.1796C55.8802 35.0197 56.1207 35.0025 58.2963 34.9904L60.6871 34.9772L61.0264 35.252C61.5259 35.6564 61.6846 36.0437 61.5972 36.646C61.5435 37.0179 61.4415 37.2317 61.209 37.4605L60.8934 37.7708H58.1471C56.3159 37.7708 55.4009 37.7391 55.4009 37.6756Z" fill="#00D1C9" stroke="#00D1C9" stroke-width="0.276677" stroke-linecap="round" stroke-linejoin="round"/>
<path d="M25.5586 46.0205C25.3317 45.9803 25.0691 45.8638 24.9753 45.7616C24.8818 45.6594 24.7074 45.5509 24.588 45.5202C24.3108 45.4487 23.206 44.5716 23.2957 44.4939C23.3328 44.4621 23.8474 44.4423 24.4391 44.4503C25.3253 44.4624 25.5932 44.4324 25.9557 44.2803C26.6403 43.9933 27.1721 43.5663 27.4866 43.0511C27.7925 42.5503 27.7865 42.6204 27.8232 39.0327C27.8298 38.3745 28.0186 38.3204 30.3116 38.3204C32.0343 38.3204 32.2109 38.3047 32.7363 38.1039C33.3631 37.8646 33.8043 37.4594 34.2306 36.7321C34.5861 36.1249 34.6124 35.2195 34.2968 34.4276C34.0469 33.8004 34.0337 33.649 34.2293 33.649C34.4096 33.649 35.2801 34.4443 35.4922 34.8024C35.7055 35.1637 35.8875 35.9419 35.8875 36.4947C35.8875 37.5296 34.9831 38.8425 33.8868 39.399C33.414 39.639 33.3243 39.6504 31.518 39.6943C30.3296 39.7233 29.5968 39.7782 29.5209 39.8438C29.3011 40.034 29.2057 41.1558 29.3249 42.148C29.387 42.6662 29.4112 43.1506 29.3786 43.2242C29.3416 43.3072 29.3832 43.3582 29.4884 43.3582C29.628 43.3582 29.6449 43.4259 29.5856 43.7474C29.3264 45.1479 27.2501 46.3198 25.5586 46.0205Z" fill="#CEDAE6" stroke="#CEDAE6" stroke-width="0.276677" stroke-linecap="round" stroke-linejoin="round"/>
<path d="M114.226 42.7094C113.672 42.6385 112.347 42.1333 112.352 41.9944C112.357 41.8058 112.61 41.7306 113.411 41.6808C114.771 41.596 115.801 41.2034 116.789 40.3937C117.378 39.9097 117.672 39.5107 117.945 38.8241C118.319 37.8825 118.426 37.3201 118.366 36.6281C118.292 35.7914 118.388 35.6364 118.725 36.0446C119.498 36.979 119.909 38.7111 119.602 39.7357C119.298 40.748 118.682 41.5255 117.721 42.1099C116.852 42.6387 115.495 42.8716 114.226 42.7094Z" fill="#CEDAE6" stroke="#CEDAE6" stroke-width="0.276677" stroke-linecap="round" stroke-linejoin="round"/>
<path d="M84.3086 60.7514C83.4033 60.6374 82.1926 60.3355 81.6 60.0763C80.8352 59.7416 79.4722 58.7661 79.5439 58.6047C79.6075 58.4613 80.0617 58.4204 80.1543 58.5498C80.3011 58.7551 83.058 58.8869 84.3556 58.7507C85.5962 58.6205 87.1161 58.2598 87.7463 57.9462C90.0811 56.784 92.3502 54.2602 93.0149 52.0864C93.2499 51.317 93.2902 50.9879 93.2983 49.7698C93.3063 48.545 93.2732 48.2431 93.0582 47.5715C92.9207 47.1432 92.7672 46.7538 92.7167 46.706C92.666 46.6581 92.6246 46.5534 92.6246 46.4735C92.6246 46.3932 92.4575 46.051 92.2535 45.7129C91.629 44.6784 91.8104 44.4228 92.6407 45.1672C94.1706 46.5389 95.2154 48.3521 95.4774 50.0904C95.6203 51.0393 95.6195 52.3849 95.4753 53.2459C95.1102 55.4249 93.4773 57.7185 91.1526 59.3166C89.5971 60.3859 88.0326 60.8598 86.1171 60.8417C85.4675 60.8356 84.6536 60.795 84.3086 60.7514Z" fill="#CEDAE6" stroke="#CEDAE6" stroke-width="0.276677" stroke-linecap="round" stroke-linejoin="round"/>
<path d="M95.1685 42.5455C94.2472 42.2908 93.579 41.9164 93.579 41.6548C93.579 41.3954 93.7547 41.3764 94.3744 41.5694C95.2739 41.8494 96.7922 41.6805 97.8508 41.1829C98.3428 40.9515 99.2445 40.1508 99.6638 39.5727C99.7671 39.4301 99.9762 39.0387 100.128 38.7025C100.368 38.1725 100.405 37.9516 100.408 37.038C100.411 36.1019 100.379 35.9142 100.122 35.3501C99.8997 34.865 99.8625 34.6991 99.9637 34.6448C100.445 34.388 101.463 36.2798 101.599 37.6818C101.69 38.6254 101.497 39.4758 100.995 40.3439C100.516 41.1728 100.215 41.4962 99.5098 41.9435C98.3568 42.6745 96.5444 42.9258 95.1685 42.5455Z" fill="#CEDAE6" stroke="#CEDAE6" stroke-width="0.276677" stroke-linecap="round" stroke-linejoin="round"/>
<path d="M59.5894 38.3783C59.4847 38.2402 59.441 38.0702 59.4821 37.9584C59.5419 37.7954 59.6391 37.7708 60.2224 37.7708C60.8523 37.7708 60.913 37.7518 61.2091 37.4605C61.44 37.2332 61.5437 37.0175 61.5963 36.6537C61.6844 36.0446 61.559 35.7304 61.047 35.275C60.7471 35.0085 60.689 34.9072 60.7874 34.8222C61.0071 34.6324 61.4825 34.846 61.6133 35.1937C61.6763 35.3608 61.8787 35.5996 62.063 35.7242C62.3141 35.8939 62.4547 36.1111 62.6225 36.5878C62.8664 37.2821 62.8399 37.5493 62.4834 37.9817C62.1864 38.342 61.7785 38.4701 60.6852 38.5463C59.7812 38.6093 59.7625 38.6065 59.5894 38.3783Z" fill="#CEDAE6" stroke="#CEDAE6" stroke-width="0.276677" stroke-linecap="round" stroke-linejoin="round"/>
<path d="M17.8276 39.6016C16.5804 39.2781 15.5662 38.0128 16.6816 38.1721C16.8918 38.2022 18.0299 38.2273 19.2111 38.2276L21.3586 38.2287L21.3578 38.847C21.3569 39.4285 21.34 39.4721 21.0715 39.5798C20.7465 39.7102 18.3095 39.7265 17.8276 39.6016Z" fill="#CEDAE6" stroke="#CEDAE6" stroke-width="0.276677" stroke-linecap="round" stroke-linejoin="round"/>
<path d="M28.1857 32.5514C27.9666 32.4748 27.9592 32.412 27.9155 30.275L27.8707 28.0775L27.5371 27.6138C27.3534 27.3588 27.2486 27.126 27.304 27.0965C27.4285 27.03 28.2519 27.6036 28.5997 27.9987C29.152 28.6263 29.1807 28.7436 29.2303 30.5806C29.2562 31.5378 29.3141 32.3931 29.359 32.4812C29.4311 32.6221 29.3783 32.6408 28.9259 32.6356C28.6428 32.6325 28.3096 32.5946 28.1857 32.5514Z" fill="#CEDAE6" stroke="#CEDAE6" stroke-width="0.276677" stroke-linecap="round" stroke-linejoin="round"/>
<path d="M58.2858 16.9709L58.3172 13.5744L58.6636 13.3071L59.01 13.04H61.7656H64.5212L64.5216 11.9638C64.5229 8.79844 65.8875 5.97401 68.4442 3.84533C71.3373 1.43656 74.9846 0.540937 79.1329 1.22039C80.85 1.50159 82.6919 2.27996 84.1936 3.35914C86.3791 4.92982 87.6515 6.69266 88.4695 9.28463L88.7444 10.1548L88.7822 15.1696L88.82 20.1845H87.5049H86.1903L86.1199 15.2991C86.0567 10.9055 86.0291 10.3446 85.8461 9.72612C85.312 7.92242 83.9403 6.21765 82.0213 4.97232C81.2993 4.50372 79.7085 3.84643 78.7082 3.60333C74.7271 2.63554 70.2418 4.47258 68.1842 7.91326C67.3394 9.32603 66.9604 10.7309 66.9604 12.45V13.0578L69.7626 13.0261L72.5654 12.9942L72.626 13.2577C72.6595 13.4024 72.6871 15.0614 72.6871 16.9442V20.3677H65.4708H58.2545L58.2858 16.9709Z" fill="#36496A" stroke="#36496A" stroke-width="0.276677" stroke-linecap="round" stroke-linejoin="round"/>
<path d="M84.7768 8.21192C84.5728 7.87485 84.1796 7.3414 83.9034 7.02686C83.5233 6.59435 83.4202 6.41006 83.4796 6.2712C83.5475 6.11255 83.6421 6.18437 84.1664 6.79293C85.1618 7.9485 85.6231 8.82964 85.2307 8.82598C85.1854 8.82561 84.9809 8.54936 84.7768 8.21192Z" fill="#58C2DA" stroke="#58C2DA" stroke-width="0.276677" stroke-linecap="round" stroke-linejoin="round"/>
<path d="M111.417 41.4127C109.509 40.6631 108.242 39.2168 108.046 37.5657C107.959 36.8325 108.21 35.7292 108.612 35.0809C109.279 34.0032 110.835 33.046 112.297 32.8144C113.111 32.6855 114.597 32.784 115.178 33.0057C116.474 33.4992 117.736 34.5958 118.134 35.5725C118.374 36.1602 118.448 37.1934 118.293 37.7807C117.95 39.0817 117.558 39.7621 116.789 40.3938C115.739 41.2544 114.751 41.612 113.252 41.6735C112.226 41.7155 112.166 41.7069 111.417 41.4127Z" fill="#F2B017" stroke="#F2B017" stroke-width="0.276677" stroke-linecap="round" stroke-linejoin="round"/>
<path d="M103.431 32.7902C102.671 32.5557 101.65 31.9919 101.197 31.5566C100.942 31.3119 100.577 30.8347 100.386 30.4959C99.9318 29.691 99.8063 28.4208 100.096 27.5598C100.524 26.2884 101.322 25.4582 102.668 24.8837C103.443 24.5529 103.535 24.5355 104.497 24.5375C105.707 24.5402 106.397 24.7304 107.486 25.3615C108.243 25.8002 108.46 26.0147 108.831 26.6911C109.276 27.5015 109.416 28.9828 109.124 29.8112C108.645 31.1741 107.444 32.2824 105.955 32.7343C105.26 32.9456 104.023 32.9731 103.431 32.7902Z" fill="#E2474F" stroke="#E2474F" stroke-width="0.276677" stroke-linecap="round" stroke-linejoin="round"/>
<path d="M72.6871 16.8492C72.6871 14.5882 72.7253 13.3053 72.7936 13.2687C72.8521 13.2375 73.3119 13.1599 73.8155 13.0965C74.7146 12.9831 74.736 12.9847 75.0261 13.1958C75.1888 13.3141 75.4217 13.5889 75.5437 13.8065C75.757 14.1872 75.7645 14.3186 75.7375 17.2621L75.7095 20.3219L74.1983 20.3472L72.6871 20.3728V16.8492Z" fill="#00D1C9" stroke="#00D1C9" stroke-width="0.276677" stroke-linecap="round" stroke-linejoin="round"/>
<path d="M81.8354 52.8152C80.9124 52.4862 80.4445 52.107 80.0258 51.3478C79.6754 50.7125 79.6355 50.5649 79.638 49.9072C79.6406 49.2717 79.6864 49.0935 79.9834 48.5633C80.5079 47.6269 81.2133 47.203 82.638 46.9674C83.2552 46.8655 83.5734 46.856 83.963 46.9282C85.3529 47.1857 86.0874 47.7141 86.4832 48.7412C87.2601 50.758 85.5277 52.8679 83.027 52.9506C82.5082 52.9676 82.1493 52.9269 81.8354 52.8152Z" fill="#405475" stroke="#405475" stroke-width="0.276677" stroke-linecap="round" stroke-linejoin="round"/>
</svg>
